<svg xmlns="http://www.w3.org/2000/svg" xmlns:xlink="http://www.w3.org/1999/xlink" id="Capa_1" width="24" height="24" x="0" y="0" enable-background="new 0 0 24 24" version="1.1" viewBox="0 0 24 24" xml:space="preserve"><path fill="none" d="M0,0h24v24H0V0z"/><polygon fill="#FFEB3B" points="20 8.69 20 4 15.311 4 12 .69 8.69 4 4 4 4 8.69 .69 12 4 15.311 4 20 8.69 20 12 23.311 15.311 20 20 20 20 15.311 23.311 12"/><path fill="#F4511E" d="M12,18c-3.31,0-6-2.689-6-6c0-3.31,2.69-6,6-6	c3.311,0,6,2.69,6,6C18,15.311,15.311,18,12,18z" enable-background="new" opacity=".9"/><circle cx="12" cy="12" r="4" fill="#FFEB3B"/></svg>