<svg xmlns="http://www.w3.org/2000/svg" xmlns:xlink="http://www.w3.org/1999/xlink" id="Layer_1" width="24" height="24" x="0" y="0" enable-background="new 0 0 24 24" version="1.1" viewBox="0 0 24 24" xml:space="preserve"><path fill="none" d="M0,0h24v24H0V0z"/><path fill="#BBDEFB" d="M19,3H5C3.89,3,3,3.9,3,5v14c0,1.1,0.89,2,2,2h14c1.109,0,2-0.9,2-2V5C21,3.9,20.109,3,19,3z"/><polyline fill="#90CAF9" points="19 5 19 19 5 19 5 5 19 5"/><polygon fill="#FFF" points="10 17 5 12 6.41 10.59 10 14.17 17.59 6.58 19 8"/></svg>