<svg xmlns="http://www.w3.org/2000/svg" xmlns:xlink="http://www.w3.org/1999/xlink" id="Capa_1" width="24" height="24" x="0" y="0" enable-background="new 0 0 24 24" version="1.1" viewBox="0 0 24 24" xml:space="preserve"><path fill="none" d="M0,0h24v24H0V0z"/><path fill="#00ACC1" d="M17,6c-3.311,0-6,2.69-6,6c0,3.311,2.689,6,6,6s6-2.689,6-6C23,8.69,20.311,6,17,6z"/><path fill="#4DD0E1" d="M5,8c-2.21,0-4,1.79-4,4s1.79,4,4,4s4-1.79,4-4S7.21,8,5,8z M5,14c-1.1,0-2-0.9-2-2c0-1.1,0.9-2,2-2	s2,0.9,2,2C7,13.1,6.1,14,5,14z"/></svg>