<svg xmlns="http://www.w3.org/2000/svg" xmlns:xlink="http://www.w3.org/1999/xlink" id="Capa_1" width="24" height="24" x="0" y="0" enable-background="new 0 0 24 24" version="1.1" viewBox="0 0 24 24" xml:space="preserve"><g><path fill="#B0BEC5" d="M19,8.973c0,5.041-6.45,12.38-6.96,12.96C12.01,21.963,12,21.973,12,21.973s-7-7.75-7-13c0-3.87,3.13-7,7-7 h0.04C15.891,1.993,19,5.113,19,8.973z"/><path fill="#90A4AE" d="M19,8.973c0,5.041-6.45,12.38-6.96,12.96V1.973 C15.891,1.993,19,5.113,19,8.973z" enable-background="new" opacity=".3"/><circle cx="12" cy="8.973" r="2.5" fill="#CFD8DC"/></g><path fill="none" d="M0,0h24v24H0V0z M11.75,11.47l-0.11-0.11L11.75,11.47z"/><rect width="1.796" height="23.66" x="10.102" y=".17" fill="#9FA8DA" transform="matrix(-0.7071 0.7071 -0.7071 -0.7071 27.2636 12.7075)"/></svg>