<svg xmlns="http://www.w3.org/2000/svg" xmlns:xlink="http://www.w3.org/1999/xlink" id="Capa_1" width="24" height="24" x="0" y="0" enable-background="new 0 0 24 24" version="1.1" viewBox="0 0 24 24" xml:space="preserve"><path fill="none" d="M0,0h24v24H0V0z"/><path fill="#42A5F5" d="M20,12c0,1.1,0.9,2,2,2v4c0,1.1-0.9,2-2,2H4c-1.1,0-2-0.9-2-2v-4c1.11,0,2-0.9,2-2c0-1.1-0.89-2-1.99-2V6	C2.01,4.9,2.9,4,4,4h16c1.1,0,2,0.9,2,2v4C20.9,10,20,10.9,20,12z"/><polygon fill="#C5CAE9" points="15.58 16.8 12 14.5 8.42 16.8 9.5 12.68 6.21 9.99 10.45 9.74 12 5.8 13.54 9.75 17.779 10 14.49 12.689"/><path fill="#C5CAE9" d="M4.97,4v16H4c-1.1,0-2-0.9-2-2v-4c1.11,0,2-0.9,2-2c0-1.1-0.89-2-1.99-2V6C2.01,4.9,2.9,4,4,4H4.97z"/><path fill="#C5CAE9" d="M20,12c0,1.1,0.9,2,2,2v4c0,1.1-0.9,2-2,2h-0.97V4H20c1.1,0,2,0.9,2,2v4C20.9,10,20,10.9,20,12z"/></svg>