<svg xmlns="http://www.w3.org/2000/svg" xmlns:xlink="http://www.w3.org/1999/xlink" id="Capa_1" width="24" height="24" x="0" y="0" enable-background="new 0 0 24 24" version="1.1" viewBox="0 0 24 24" xml:space="preserve"><path fill="none" d="M0,0h24v24H0V0z"/><path fill="#F48FB1" d="M11.99,2C6.47,2,2,6.48,2,12c0,5.52,4.47,10,9.99,10C17.52,22,22,17.52,22,12C22,6.48,17.52,2,11.99,2z"/><circle cx="12" cy="12" r="8" fill="#F48FB1"/><circle cx="15.5" cy="9.5" r="1.5" fill="#CFD8DC"/><circle cx="8.5" cy="9.5" r="1.5" fill="#CFD8DC"/><path fill="#CFD8DC" d="M12,17.5c2.33,0,4.311-1.46,5.109-3.5H6.89C7.69,16.04,9.67,17.5,12,17.5z"/></svg>