<svg xmlns="http://www.w3.org/2000/svg" xmlns:xlink="http://www.w3.org/1999/xlink" id="Capa_1" width="24" height="24" x="0" y="0" enable-background="new 0 0 24 24" version="1.1" viewBox="0 0 24 24" xml:space="preserve"><path fill="#FFAB91" d="M21,11c0,2.76-2.24,5-5,5h-1.77c-0.83,0-1.5,0.67-1.5,1.5c0,0.38,0.149,0.73,0.38,0.99	c0.239,0.27,0.39,0.62,0.39,1.01c0,0.83-0.67,1.5-1.5,1.5c-4.97,0-9-4.03-9-9c0-4.97,4.03-9,9-9C16.97,3,21,6.58,21,11z"/><path fill="none" d="M0,0h24v24H0V0z"/><circle cx="6.875" cy="10.938" r="2.125" fill="#E53935"/><circle cx="11.953" cy="6.625" r="2.125" fill="#43A047"/><circle cx="17.031" cy="10.188" r="2.125" fill="#1E88E5"/></svg>