<svg xmlns="http://www.w3.org/2000/svg" xmlns:xlink="http://www.w3.org/1999/xlink" id="Capa_1" width="24" height="24" x="0" y="0" enable-background="new 0 0 24 24" version="1.1" viewBox="0 0 24 24" xml:space="preserve"><path fill="none" d="M0,0h24v24H0V0z"/><path fill="#C5CAE9" d="M23,5v14c0,1.1-0.9,2-2,2H3c-1.1,0-2-0.9-2-2V5c0-1.1,0.9-2,2-2h18C22.1,3,23,3.9,23,5z"/><polygon fill="#C5CAE9" points="21 19 3 19 3 5 13 5 13 9 21 9"/><path fill="#0097A7" d="M23,5v3.96H13V3h8C22.1,3,23,3.9,23,5z"/></svg>