<svg xmlns="http://www.w3.org/2000/svg" xmlns:svg="http://www.w3.org/2000/svg" xmlns:xlink="http://www.w3.org/1999/xlink" id="svg2" width="96.592" height="58.824" version="1.1"><defs id="defs4"><linearGradient id="linearGradient3667" x1="435.078" x2="435.078" y1="633.3" y2="533.036" gradientTransform="translate(-528.19131,-29.686872)" gradientUnits="userSpaceOnUse" xlink:href="#linearGradient3661"/><linearGradient id="linearGradient4132" x1="-29.295" x2="93.106" y1="594.273" y2="594.273" gradientTransform="translate(-17.8297,209.72444)" gradientUnits="userSpaceOnUse" xlink:href="#linearGradient3206"/><linearGradient id="linearGradient4120" x1="-47.125" x2="75.277" y1="615.469" y2="615.469" gradientTransform="translate(0,-6.4083621)" gradientUnits="userSpaceOnUse" xlink:href="#linearGradient4070"/><linearGradient id="linearGradient4118" x1="-29.295" x2="93.106" y1="594.273" y2="594.273" gradientTransform="translate(-17.8297,209.72444)" gradientUnits="userSpaceOnUse" xlink:href="#linearGradient3206"/><linearGradient id="linearGradient4116" x1="-29.295" x2="93.106" y1="594.273" y2="594.273" gradientTransform="translate(-17.8297,115.46027)" gradientUnits="userSpaceOnUse" xlink:href="#linearGradient3206"/><linearGradient id="linearGradient4076" x1="-47.125" x2="75.277" y1="615.469" y2="615.469" gradientTransform="translate(0,-6.4083621)" gradientUnits="userSpaceOnUse" xlink:href="#linearGradient4070"/><linearGradient id="linearGradient3260" x1="-29.295" x2="93.106" y1="594.273" y2="594.273" gradientTransform="translate(-17.8297,209.72444)" gradientUnits="userSpaceOnUse" xlink:href="#linearGradient3206"/><linearGradient id="linearGradient3224" x1="-29.295" x2="93.106" y1="594.273" y2="594.273" gradientTransform="translate(-17.8297,115.46027)" gradientUnits="userSpaceOnUse" xlink:href="#linearGradient3206"/><linearGradient id="linearGradient3320" x1="131.906" x2="404.924" y1="173.158" y2="173.158" gradientUnits="userSpaceOnUse" xlink:href="#linearGradient3312"/><linearGradient id="linearGradient3312"><stop id="stop3314" offset="0" stop-color="#b9c1ff" stop-opacity="1"/><stop id="stop3316" offset="1" stop-color="#b9c1ff" stop-opacity=".549"/></linearGradient><linearGradient id="linearGradient3187"><stop id="stop3189" offset="0" stop-color="#ff0" stop-opacity="1"/><stop id="stop3191" offset="1" stop-color="#ff0" stop-opacity="0"/></linearGradient><linearGradient id="linearGradient3206"><stop id="stop3208" offset="0" stop-color="#909090" stop-opacity="1"/><stop id="stop3210" offset="1" stop-color="#6f6f6f" stop-opacity="0"/></linearGradient><linearGradient id="linearGradient4070"><stop id="stop4072" offset="0" stop-color="#989898" stop-opacity="1"/><stop id="stop4074" offset="1" stop-color="#989898" stop-opacity="0"/></linearGradient><linearGradient id="linearGradient3661"><stop id="stop3663" offset="0" stop-color="#2a5faf" stop-opacity="1"/><stop id="stop3665" offset="1" stop-color="#84aeec" stop-opacity="1"/></linearGradient></defs><metadata id="metadata7"/><g id="layer1" transform="translate(-99.070922,-102.6903)"><g id="layer1-8" transform="translate(916.37579,-480.7047)"><g id="layer1-1" transform="matrix(0.21011019,0,0,0.21011019,616.04715,830.41892)"><path id="path3053" fill="none" stroke="#c4c4c4" stroke-dasharray="600" stroke-linecap="round" stroke-opacity=".553" stroke-width="28.556" d="m -6641.655,-1161.4187 c -49.1292,0 -88.9559,39.8269 -88.9559,88.9559 0,3.8181 0.2561,7.5949 0.7227,11.2863 -0.7036,-0.019 -1.4042,-0.056 -2.1127,-0.056 -41.7597,0 -75.6125,33.8528 -75.6125,75.61241 0,41.75961 33.8528,75.61247 75.6125,75.61247 l 293.2763,0 c 34.3902,0 62.2692,-27.87881 62.2692,-62.26909 0,-34.39029 -27.879,-62.26909 -62.2692,-62.26909 -0.1124,0 -0.2225,-6e-4 -0.3335,0 0.08,-1.5529 0.1673,-3.0972 0.1673,-4.6702 0,-49.1289 -39.827,-88.9558 -88.956,-88.9558 -13.7113,0 -26.7078,3.1324 -38.3065,8.6732 -15.7124,-25.1679 -43.6455,-41.9205 -75.5015,-41.9205 z"><animate attributeName="stroke-dashoffset" dur="1000ms" from="0" repeatCount="indefinite" to="1200"/></path></g></g></g></svg>