<svg xmlns="http://www.w3.org/2000/svg" xmlns:svg="http://www.w3.org/2000/svg" id="svg8" width="500" height="500" version="1.1" viewBox="0 0 132.292 132.292"><metadata id="metadata5"/><g id="layer1" transform="translate(0,-164.70832)"><circle id="path4562" cx="66.213" cy="230.921" r="55.563" fill="#000" fill-opacity="1" stroke="none" stroke-dasharray="none" stroke-linecap="square" stroke-miterlimit="4" stroke-opacity="1" stroke-width="2" opacity=".1"/><ellipse id="path4872" cx="53.434" cy="218.595" fill="#e9e0af" fill-opacity="1" stroke="none" stroke-dasharray="none" stroke-linecap="round" stroke-miterlimit="4" stroke-opacity="1" stroke-width="2.203" opacity="1" rx="47.251" ry="45.023"/><g id="g5620" transform="matrix(1.061621,0,0,1.061621,-12.999726,-26.006456)"><path id="path5613" fill="#333" fill-rule="evenodd" stroke="#5c5c5c" stroke-dasharray="none" stroke-linecap="butt" stroke-linejoin="miter" stroke-miterlimit="4" stroke-opacity="1" stroke-width="3.426" d="m 94.489678,261.88939 6.042582,6.04257"/><path id="path3816-5" fill="#08a" fill-opacity="1" stroke="none" stroke-width=".437" d="m 56.576169,230.16688 c 0,0 -8.52568,3.35953 -14.428072,5.32698 -5.902393,1.96748 -10.493142,7.86988 -10.493142,12.38019 l 0.06295,13.89298 c 10.373471,5.96101 20.022051,13.13622 34.151082,12.80666 7.869849,0 15.425939,-2.35382 15.425939,-10.22369 l 0.202445,-16.47595 c 0,-4.51031 -4.590748,-10.41271 -10.493126,-12.38019 -5.902396,-1.96745 -14.428079,-5.32698 -14.428079,-5.32698 z"/><circle id="path5611" cx="62.766" cy="230.166" r="43.809" fill="none" fill-opacity="1" stroke="#999" stroke-dasharray="none" stroke-linecap="round" stroke-miterlimit="4" stroke-opacity="1" stroke-width="5.378" opacity="1"/><rect id="rect5615" width="27.192" height="9.064" x="-287.735" y="-122.642" fill="#c46530" fill-opacity="1" stroke="#8a5a3d" stroke-dasharray="none" stroke-linecap="round" stroke-miterlimit="4" stroke-opacity="1" stroke-width="2.826" opacity="1" ry="3.021" transform="rotate(-135)"/><path id="path3818-2" fill="#ccc" fill-opacity="1" stroke="none" stroke-width=".437" d="m 48.706312,230.16688 v 3.14092 c 0.734632,6.37449 3.916592,12.60362 7.869857,12.67921 5.089114,0.11842 10.260763,-11.7282 7.869859,-12.67921 v -3.14092 z"/><path id="rect2987-8" fill="#f9f9f9" fill-opacity="1" stroke="none" stroke-width=".437" d="m 56.576169,184.9152 c 11.804784,0 19.674633,8.77489 19.674633,19.67464 v 7.86985 c 0,10.89975 -9.83732,19.67466 -19.674633,19.67466 -9.837322,0 -19.674642,-8.77491 -19.674642,-19.67466 v -7.86985 c 0,-10.89975 7.869857,-19.67464 19.674642,-19.67464 z"/><ellipse id="path3764-4" cx="48.706" cy="210.492" fill="#374845" fill-opacity="1" stroke="none" stroke-width=".328" rx="1.967" ry="3.935"/><ellipse id="path3766-6" cx="64.446" cy="210.492" fill="#374845" fill-opacity="1" stroke="none" stroke-width=".328" rx="1.967" ry="3.935"/><path id="path4521" fill="#000" fill-opacity="1" fill-rule="evenodd" stroke="none" stroke-linecap="butt" stroke-linejoin="miter" stroke-opacity="1" stroke-width=".285" d="m 57.331219,183.50413 c -28.459235,0 -24.190349,38.06631 -21.344426,42.33519 2.845924,4.26889 6.640482,5.21753 9.960732,7.11481 -4.831794,-9.44756 -4.368542,-24.50913 -3.271982,-32.37446 h 14.655676 14.655677 c 1.09656,7.86533 1.559812,22.9269 -3.271982,32.37446 3.32025,-1.89728 7.114808,-2.84592 9.960732,-7.11481 2.845923,-4.26888 7.114809,-42.33519 -21.344427,-42.33519 z"/></g></g></svg>