<svg xmlns="http://www.w3.org/2000/svg" xmlns:svg="http://www.w3.org/2000/svg" id="svg3057" width="160" height="93.297" version="1.1"><metadata id="metadata3062"/><g id="layer1" transform="translate(-295,-485.71358)"><path id="path3053-5" fill="#fff" fill-opacity="1" stroke="none" d="m 356.58613,485.71361 c -18.23154,0 -33.01098,14.77951 -33.01098,33.01094 0,1.41687 0.095,2.81841 0.26819,4.1883 -0.26112,-0.008 -0.5211,-0.0206 -0.78401,-0.0206 -15.49676,-9e-5 -28.05933,12.5625 -28.05933,28.0592 0,15.49676 12.56257,28.05933 28.05933,28.05933 l 108.83297,0 c 12.762,0 23.1077,-10.34565 23.1077,-23.10768 0,-12.762 -10.3457,-23.10764 -23.1077,-23.10764 -0.0416,0 -0.0827,-2.2e-4 -0.1238,0 0.0297,-0.57629 0.0619,-1.14934 0.0619,-1.7331 0,-18.23142 -14.77955,-33.01093 -33.011,-33.01093 -5.08819,0 -9.91111,1.1624 -14.2153,3.21855 -5.83079,-9.33965 -16.19659,-15.5564 -28.01814,-15.5564 z"/></g></svg>